<svg width="40" height="39" viewBox="0 0 40 39" xmlns="http://www.w3.org/2000/svg"><title>Fill/46-arrows/arrow-circle-down-2</title><path d="M20 38.994c10.587 0 19.2-8.613 19.2-19.2 0-10.588-8.613-19.2-19.2-19.2S.8 9.206.8 19.794c0 10.587 8.613 19.2 19.2 19.2zM8.968 18.08l9.325-8.978a2.465 2.465 0 0 1 1.717-.683c.64 0 1.244.237 1.7.669l9.31 8.824c.468.442.729 1.038.737 1.68a2.346 2.346 0 0 1-.691 1.7l-.474.473c-.883.89-2.488.936-3.422.096l-3.97-3.554V30.2c0 1.323-1.077 2.4-2.4 2.4h-1.6a2.403 2.403 0 0 1-2.4-2.4V18.363l-3.976 3.648c-.933.855-2.52.823-3.416-.073l-.474-.477a2.347 2.347 0 0 1-.694-1.7 2.34 2.34 0 0 1 .728-1.681z" fill="#0067C5" fill-rule="evenodd"/></svg>